# xmcd
#
# Track frame offsets: 
#        150
#        22731
#        39175
#        57686
#        66304
#        81891
#        103587
#        118184
#        126399
#        137126
#        153238
#        166175
#        177765
#        196112
#        208649
#        226817
#        229628
#        239897
#        260235
#        279670
#        286019
#        294679
#        309550
#
# Disc length: 4263 seconds
#
# Revision: 0
# Processed by: cddbd v1.5.2PL0 Copyright (c) Steve Scherf et al.
# Submitted via: ExactAudioCopy v0.99pb4
#
DISCID=5110a517
DTITLE=Replacements - We Desperately Want You to Love Us
DYEAR=1986
DGENRE=Ambient
TTITLE0=Hold My Life
TTITLE1=Left of the Dial
TTITLE2=Little Mascara
TTITLE3=Tommy Gets His Tonsils Out
TTITLE4=Bastards of Young
TTITLE5=Sixteen Blue
TTITLE6=Unsatisfied
TTITLE7=Heartbeat is a Love Beat
TTITLE8=Easier Said than Done
TTITLE9=Black Diamond
TTITLE10=Don't Ask Why
TTITLE11=Seen Your Video
TTITLE12=Kiss Me on the Bus
TTITLE13=Favorite Thing
TTITLE14=Rattlesnake Blues
TTITLE15=I Think I'm Going Out of My Head
TTITLE16=Fuck School
TTITLE17=Sixteen Blue
TTITLE18=Willpower
TTITLE19=Job Country
TTITLE20=Lawdy Miss Clawdy
TTITLE21=I Will Dare
TTITLE22=Color Me Impressed
EXTD=
EXTT0=
EXTT1=
EXTT2=
EXTT3=
EXTT4=
EXTT5=
EXTT6=
EXTT7=
EXTT8=
EXTT9=
EXTT10=
EXTT11=
EXTT12=
EXTT13=
EXTT14=
EXTT15=
EXTT16=
EXTT17=
EXTT18=
EXTT19=
EXTT20=
EXTT21=
EXTT22=
PLAYORDER=
